<?xml version="1.0" encoding="UTF-8" standalone="no"?>
<!-- Created with Inkscape (http://www.inkscape.org/) -->

<svg
   xmlns:dc="http://purl.org/dc/elements/1.1/"
   xmlns:cc="http://creativecommons.org/ns#"
   xmlns:rdf="http://www.w3.org/1999/02/22-rdf-syntax-ns#"
   xmlns:svg="http://www.w3.org/2000/svg"
   xmlns="http://www.w3.org/2000/svg"
   xmlns:sodipodi="http://sodipodi.sourceforge.net/DTD/sodipodi-0.dtd"
   xmlns:inkscape="http://www.inkscape.org/namespaces/inkscape"
   width="334px"
   height="334px"
   viewBox="0 0 334 334"
   version="1.1"
   id="SVGRoot"
   inkscape:version="0.92.5 (2060ec1f9f, 2020-04-08)"
   sodipodi:docname="icon.svg">
  <defs
     id="defs4075" />
  <sodipodi:namedview
     id="base"
     pagecolor="#ffffff"
     bordercolor="#666666"
     borderopacity="1.0"
     inkscape:pageopacity="0.0"
     inkscape:pageshadow="2"
     inkscape:zoom="1.5329341"
     inkscape:cx="167"
     inkscape:cy="167"
     inkscape:document-units="px"
     inkscape:current-layer="layer1"
     showgrid="false"
     inkscape:window-width="1920"
     inkscape:window-height="1016"
     inkscape:window-x="0"
     inkscape:window-y="27"
     inkscape:window-maximized="1" />
  <metadata
     id="metadata4078">
    <rdf:RDF>
      <cc:Work
         rdf:about="">
        <dc:format>image/svg+xml</dc:format>
        <dc:type
           rdf:resource="http://purl.org/dc/dcmitype/StillImage" />
        <dc:title></dc:title>
      </cc:Work>
    </rdf:RDF>
  </metadata>
  <g
     inkscape:label="Layer 1"
     inkscape:groupmode="layer"
     id="layer1">
    <g
       transform="matrix(1.9211538,0,0,1.9211538,166.57999,167.42027)"
       id="logo-logo">
      <g
         style="paint-order:stroke"
         id="g49">
        <g
           transform="matrix(0.39975394,0,0,0.39975394,2.4904187e-5,-1.306649e-4)"
           id="g11">
          <path
             inkscape:connector-curvature="0"
             style="opacity:1;fill:#fbc41e;fill-rule:nonzero;stroke:none;stroke-width:1;stroke-linecap:butt;stroke-linejoin:miter;stroke-miterlimit:4;stroke-dasharray:none;stroke-dashoffset:0;paint-order:stroke"
             transform="translate(-521.98442,-491.41699)"
             d="m 726.8653,456.95166 c -9.73798,-14.20898 -26.49921,-22.09412 -43.55603,-16.45642 -22.73572,7.51465 -38.76502,33.08212 -58.66437,20.21442 0.0134,-0.0112 0.0273,-0.0245 0.0407,-0.0354 12.35943,6.17977 25.01092,-5.40125 30.34375,-17.01865 5.12768,-11.17044 5.79889,-24.57062 14.44873,-33.95548 3.91321,-4.24569 10.53619,-9.39236 16.49615,-9.92852 -6.79547,-2.68595 -13.20257,-6.10898 -23.32666,-4.95044 -7.72723,0.8843 -18.64978,3.28308 -29.00653,16.34283 0.55652,-1.44897 1.09436,-2.89914 1.64203,-4.34006 4.28833,-11.28283 3.99908,-23.71841 1.36121,-35.34896 -3.00257,-13.23807 -7.1756,-30.70545 8.72955,-37.19092 5.71857,-2.33173 12.81647,-3.08222 18.91486,-3.51895 -4.98121,-3.31678 -13.97565,-7.13025 -21.80219,-8.59153 -16.93304,-3.1615 -34.36066,3.11484 -42.43524,19.16233 -10.76294,21.39029 -4.01837,50.80374 -27.18823,55.77585 0.002,-0.0175 0.002,-0.0367 0.004,-0.0538 13.10919,-4.36975 13.86621,-21.5047 9.4223,-33.49029 -4.27289,-11.52454 -13.27362,-21.47452 -13.79339,-34.22699 -0.23511,-5.7692 0.80889,-14.09162 4.64404,-18.68506 -6.70435,2.90588 -13.65528,5.01593 -19.99487,12.99396 -4.83869,6.08926 -10.86597,15.50888 -8.95466,32.06689 -0.63104,-1.41812 -1.27618,-2.82385 -1.90783,-4.22998 -4.9458,-11.01053 -13.94361,-19.59927 -24.0329,-25.95801 -11.48386,-7.23764 -26.78595,-16.63812 -20.12521,-32.47073 2.39486,-5.69241 6.88317,-11.2421 10.88653,-15.86307 -5.86755,1.17691 -14.9241,4.84042 -21.49161,9.34137 -14.20895,9.73795 -22.09411,26.49918 -16.45642,43.55603 7.51468,22.73575 33.08216,38.76511 20.21442,58.66446 -0.0112,-0.0134 -0.0245,-0.0273 -0.0354,-0.0407 6.17978,-12.35953 -5.40125,-25.01102 -17.01862,-30.34381 -11.17047,-5.12766 -24.57061,-5.79889 -33.95547,-14.44873 -4.2457,-3.91318 -9.39234,-10.53626 -9.92853,-16.49616 -2.68594,6.79545 -6.10895,13.20255 -4.95041,23.32663 0.88431,7.72724 3.28305,18.64981 16.34281,29.0066 -1.44895,-0.55652 -2.89914,-1.09433 -4.34006,-1.64203 -11.28284,-4.28833 -23.71839,-3.99909 -35.34894,-1.36118 -13.23807,3.0025 -30.70544,7.1756 -37.19092,-8.72961 -2.33172,-5.71857 -3.08218,-12.8165 -3.51892,-18.91486 -3.31677,4.9812 -7.13025,13.97565 -8.59152,21.80225 -3.1615,16.93301 3.11484,34.36065 19.16232,42.43521 21.39023,10.76291 50.80365,4.0184 55.77576,27.18823 -0.0174,-0.002 -0.0367,-0.002 -0.0538,-0.004 -4.36978,-13.10925 -21.50473,-13.86621 -33.4903,-9.42233 -11.5245,4.27291 -21.47449,13.27365 -34.22696,13.79339 -5.76919,0.23511 -14.09161,-0.80887 -18.68506,-4.64404 2.90589,6.70434 5.01593,13.6553 12.99396,19.9949 6.08927,4.83872 15.50888,10.86597 32.06687,8.95462 -1.4181,0.63108 -2.82386,1.27622 -4.22999,1.90784 -11.01049,4.94583 -19.59924,13.94366 -25.958,24.03296 -7.23761,11.48382 -16.63809,26.78595 -32.47068,20.12518 -5.69241,-2.39483 -11.24209,-6.88315 -15.86309,-10.8865 1.17694,5.86755 4.84042,14.9241 9.34137,21.4916 9.73794,14.20899 26.49917,22.09412 43.55603,16.45643 22.73571,-7.51465 38.76507,-33.08219 58.66443,-20.21442 -0.0134,0.0112 -0.0273,0.0245 -0.0406,0.0354 -12.35953,-6.17975 -25.01102,5.40124 -30.34378,17.01861 -5.12769,11.17048 -5.79892,24.57068 -14.44874,33.95557 -3.91317,4.24567 -10.53625,9.39227 -16.49615,9.92847 6.79544,2.68591 13.20251,6.10895 23.32663,4.95044 7.7272,-0.88434 18.64978,-3.28308 29.00653,-16.34284 -0.55652,1.44898 -1.09433,2.89917 -1.642,4.34009 -4.28836,11.28284 -3.99908,23.71845 -1.36117,35.34894 3.00247,13.2381 7.17559,30.70544 -8.72962,37.19092 -5.71856,2.33172 -12.8165,3.08221 -18.91482,3.51892 4.98117,3.31683 13.97561,7.13025 21.80221,8.59161 16.93302,3.16144 34.36063,-3.11493 42.43518,-19.16235 10.76291,-21.39026 4.01841,-50.80365 27.18824,-55.77582 -0.002,0.0175 -0.002,0.0366 -0.004,0.0538 -13.10925,4.36975 -13.86621,21.5047 -9.42233,33.4903 4.27292,11.52453 13.27362,21.47448 13.7934,34.22699 0.23507,5.76916 -0.80887,14.09161 -4.64405,18.68506 6.70435,-2.90589 13.65528,-5.01593 19.99491,-12.99396 4.83868,-6.0893 10.86593,-15.50891 8.95459,-32.0669 0.63107,1.41809 1.27621,2.82386 1.90783,4.22998 4.94583,11.0105 13.94367,19.59931 24.03296,25.95801 11.48383,7.23761 26.78595,16.63812 20.12519,32.47071 -2.3949,5.69244 -6.88318,11.24212 -10.88654,15.86309 5.86755,-1.17694 14.92413,-4.84039 21.49164,-9.34137 14.20892,-9.73791 22.09405,-26.4992 16.45636,-43.55603 -7.51465,-22.73578 -33.08209,-38.76507 -20.21442,-58.66443 0.0112,0.0134 0.0246,0.0273 0.0354,0.0407 -6.17969,12.3595 5.40125,25.01099 17.01868,30.34382 11.17041,5.12768 24.57062,5.79882 33.9555,14.44866 4.24567,3.91327 9.39228,10.53626 9.92847,16.49622 2.68591,-6.79547 6.10895,-13.20258 4.95044,-23.32666 -0.88434,-7.72723 -3.28308,-18.64984 -16.34283,-29.00659 1.44897,0.55652 2.89917,1.09436 4.34008,1.64203 11.28284,4.28839 23.71839,3.99914 35.34888,1.3612 13.2381,-3.0025 30.70545,-7.17559 37.19092,8.72962 2.33172,5.7185 3.08227,12.81646 3.51898,18.91479 3.31677,-4.9812 7.13025,-13.97564 8.59155,-21.80218 3.16144,-16.93299 -3.11493,-34.36066 -19.16235,-42.43524 -21.39032,-10.76294 -50.80365,-4.01838 -55.77576,-27.18824 0.0174,0.002 0.0366,0.002 0.0538,0.004 4.36975,13.10925 21.50469,13.86621 33.49029,9.42236 11.52448,-4.27295 21.47449,-13.27362 34.22693,-13.7934 5.76923,-0.2351 14.09161,0.80884 18.68506,4.64405 -2.90589,-6.70435 -5.01593,-13.65528 -12.99396,-19.99494 -6.08929,-4.83868 -15.50885,-10.86593 -32.06683,-8.95459 1.41809,-0.63104 2.82385,-1.27618 4.22998,-1.90784 11.0105,-4.94583 19.59924,-13.94366 25.95794,-24.03295 7.23761,-11.48383 16.63813,-26.78598 32.47071,-20.12522 5.69238,2.39487 11.24206,6.88318 15.8631,10.88654 -1.17695,-5.86756 -4.84046,-14.92411 -9.34137,-21.49161 z m -100.95466,59.72925 c -0.10473,0.0114 -0.20904,0.0259 -0.31073,0.06 -1.16131,0.38897 -1.21887,1.96197 -1.34137,3.1806 -0.20397,2.02923 -1.17492,3.89014 -2.12786,5.6933 -2.36811,4.48102 -4.73621,8.96209 -7.10437,13.44311 -0.40924,0.77436 -0.82886,1.58881 -0.82703,2.46466 4.9e-4,0.22541 0.0871,0.37842 0.22723,0.4856 -2.08294,4.45379 -4.67328,8.70001 -7.62243,12.61597 -6.46009,8.57794 -21.73279,19.65435 -29.99707,26.5111 0.26129,0.56086 0.52893,1.10242 0.80011,1.63306 -0.0822,-0.066 -0.1662,-0.12952 -0.26221,-0.17731 -1.09619,-0.54614 -2.24915,0.52545 -3.19745,1.30048 -1.57916,1.29065 -3.58154,1.91998 -5.53039,2.52118 -4.84308,1.49408 -9.68616,2.9881 -14.5293,4.48218 -0.83692,0.25811 -1.70954,0.53735 -2.32758,1.15796 -0.15905,0.15972 -0.20605,0.32922 -0.18274,0.50408 -4.62213,1.6764 -9.4563,2.84729 -14.31067,3.53089 -10.63348,1.4975 -29.2651,-1.46967 -39.9573,-2.46491 -0.21182,0.5813 -0.40552,1.15345 -0.58899,1.72046 -0.0113,-0.10479 -0.0259,-0.2091 -0.06,-0.31079 -0.38901,-1.16131 -1.96197,-1.21887 -3.18057,-1.34137 -2.02924,-0.20398 -3.89017,-1.17486 -5.6933,-2.12787 -4.48108,-2.3681 -8.9621,-4.7362 -13.44314,-7.10437 -0.77433,-0.40918 -1.58881,-0.82885 -2.46466,-0.82702 -0.22541,4.9e-4 -0.37842,0.0871 -0.4856,0.22723 -4.45377,-2.08295 -8.70001,-4.67328 -12.61591,-7.62244 -8.57797,-6.46008 -19.65435,-21.73278 -26.51117,-29.99707 -0.56082,0.2613 -1.10235,0.52887 -1.63302,0.80011 0.0661,-0.0821 0.12955,-0.16619 0.1774,-0.2622 0.54608,-1.09619 -0.52549,-2.24915 -1.30054,-3.19745 -1.29065,-1.57916 -1.91998,-3.58154 -2.52118,-5.5304 -1.49405,-4.84314 -2.9881,-9.68622 -4.48215,-14.52936 -0.25818,-0.83685 -0.53738,-1.70953 -1.15799,-2.32757 -0.15969,-0.159 -0.32913,-0.20599 -0.50402,-0.18268 -1.67646,-4.62219 -2.84736,-9.45633 -3.53098,-14.3107 -1.4975,-10.63351 1.4697,-29.26514 2.46494,-39.95734 -0.58133,-0.21182 -1.15348,-0.40551 -1.72046,-0.58898 0.10476,-0.0114 0.2091,-0.0259 0.31076,-0.06 1.16131,-0.38901 1.21887,-1.96198 1.34137,-3.18057 0.20398,-2.02924 1.17489,-3.89017 2.12787,-5.6933 2.3681,-4.48108 4.7362,-8.9621 7.10437,-13.44318 0.40921,-0.77429 0.82885,-1.5888 0.82702,-2.46463 -4.6e-4,-0.2254 -0.087,-0.37845 -0.2272,-0.48562 2.08298,-4.4538 4.67325,-8.70002 7.62237,-12.61591 6.46018,-8.57794 21.73285,-19.65436 29.99707,-26.51117 -0.26123,-0.56082 -0.52883,-1.10239 -0.80001,-1.63303 0.0821,0.0661 0.16613,0.12955 0.26211,0.17737 1.09619,0.54611 2.24918,-0.52545 3.19748,-1.3005 1.57916,-1.29068 3.58154,-1.92002 5.5304,-2.52118 4.84314,-1.49405 9.68618,-2.9881 14.52929,-4.48215 0.83689,-0.25821 1.70957,-0.53742 2.32758,-1.15799 0.15906,-0.15973 0.20605,-0.32919 0.18271,-0.50409 4.62216,-1.67645 9.45633,-2.84729 14.31067,-3.53091 10.63354,-1.49753 29.26513,1.46966 39.95733,2.4649 0.21179,-0.5813 0.40552,-1.15344 0.58899,-1.72043 0.0113,0.10474 0.0259,0.20908 0.0599,0.31076 0.38904,1.16129 1.96203,1.21887 3.1806,1.34134 2.02924,0.20401 3.8902,1.17493 5.6933,2.12787 4.48108,2.36813 8.9621,4.73624 13.44318,7.1044 0.77429,0.40921 1.58874,0.82883 2.4646,0.82703 0.2254,-4.9e-4 0.37847,-0.087 0.48565,-0.22721 4.4538,2.08298 8.70001,4.67325 12.61591,7.62238 8.57794,6.46017 19.65436,21.73285 26.51111,29.9971 0.56085,-0.26126 1.10241,-0.52884 1.63305,-0.80005 -0.066,0.0821 -0.12957,0.16617 -0.17736,0.26212 -0.54615,1.09622 0.52551,2.2492 1.30053,3.19748 1.29065,1.57916 1.91999,3.58157 2.52112,5.53042 1.49414,4.84314 2.98816,9.68616 4.48224,14.5293 0.25812,0.83688 0.53735,1.70956 1.15796,2.32757 0.15973,0.15906 0.32916,0.20606 0.50403,0.18271 1.67645,4.62217 2.84729,9.45633 3.53094,14.31067 1.4975,10.63355 -1.46966,29.26517 -2.4649,39.9574 0.5813,0.21179 1.15344,0.40552 1.72039,0.58893 z"
             id="path9" />
        </g>
        <g
           transform="matrix(0.39975394,0,0,0.39975394,3.4276032e-5,-1.2560543e-4)"
           id="g15">
          <path
             inkscape:connector-curvature="0"
             style="opacity:1;fill:#ed7e11;fill-rule:nonzero;stroke:none;stroke-width:1;stroke-linecap:butt;stroke-linejoin:miter;stroke-miterlimit:4;stroke-dasharray:none;stroke-dashoffset:0;paint-order:stroke"
             transform="translate(-521.98444,-491.417)"
             d="m 568.7525,397.96512 c 3.71887,-1.38233 7.48456,-2.78897 10.72711,-5.07517 6.45588,-4.55182 10.15253,-12.11981 12.22998,-19.74096 2.07746,-7.62119 2.79749,-15.55533 4.76014,-23.20688 1.96264,-7.65149 5.40753,-15.29526 11.65167,-20.13352 2.69171,-2.08563 5.79468,-3.56549 8.89178,-4.98095 2.71137,-1.23923 5.48719,-2.45575 8.44355,-2.83951 2.60608,-0.33832 5.24755,-0.0154 7.85559,0.30743 4.93255,0.61054 9.86511,1.22107 14.79767,1.83161 4.87609,0.60351 13.02331,1.13778 16.29986,5.30795 -4.4812,0.40622 -9.60724,-1.60138 -14.23004,-1.69922 -6.0025,-0.12707 -11.73236,0.97971 -16.82922,3.48236 -3.57807,1.75693 -6.84418,4.20178 -9.67359,7.3906 -5.95245,6.70861 -9.46295,15.33105 -10.44592,24.20727 -1.05713,9.54535 1.50732,19.05426 0.5166,28.59986 -1.16424,11.21813 -3.9621,25.12203 -12.68402,32.89071 -2.27698,-2.56515 -4.97284,-6.87488 -7.43408,-9.08917 -7.52204,-6.76733 -15.90265,-12.57935 -24.87708,-17.25241 z m 82.71259,0.36548 c -5.27313,2.07376 -10.70209,4.49972 -14.20343,8.95468 -2.52661,3.21472 -3.81714,7.20346 -5.75098,10.806 -4.00629,7.46341 -10.6878,13.12732 -15.36548,20.18936 -0.4201,0.63431 -0.8349,1.3107 -0.90857,2.06793 -0.0719,0.73871 0.1894,1.46469 0.44648,2.16089 1.04779,2.83746 0.47216,5.27057 1.51995,8.108 0.70954,1.92136 2.5033,6.37848 2.5033,6.37848 0.0938,-0.0239 0.18768,-0.0477 0.28156,-0.0716 9.50933,-2.50223 14.75262,-12.53855 18.76776,-20.6546 4.13562,-8.35953 7.97009,-17.15992 14.04553,-24.33265 0.43872,-0.518 0.88922,-1.02758 1.35235,-1.52786 6.54401,-7.06897 15.50129,-11.39618 25.19312,-11.41781 1.24231,-0.003 2.46472,0.11526 3.70184,0.19424 0.48609,0.031 2.73987,-0.39484 2.81531,-0.35388 -7.64978,-4.15088 -16.82227,-5.41559 -25.30987,-3.48984 -3.11329,0.70639 -6.11799,1.82025 -9.08887,2.98862 z m 77.99524,63.97891 c -3.05609,-3.91956 -6.11219,-7.83914 -9.16834,-11.7587 -1.6159,-2.07245 -3.25537,-4.16852 -5.33734,-5.77209 -2.36182,-1.81909 -5.18481,-2.92169 -7.97839,-3.96268 -3.1908,-1.18909 -6.43134,-2.33682 -9.80951,-2.76538 -7.83637,-0.99408 -15.67725,1.97488 -22.47553,5.99756 -6.79821,4.02267 -12.9176,9.12381 -19.77557,13.04382 -6.85791,3.92001 -14.82324,6.65744 -22.60693,5.31104 -3.90937,-0.67621 -7.56678,-2.3443 -11.17383,-3.99652 3.0415,9.65026 4.85779,19.68597 5.39142,29.7901 0.17462,3.30609 -0.96656,8.25979 -1.17029,11.68365 11.66058,0.6741 23.47052,-7.17908 32.22619,-14.28824 7.45026,-6.04922 12.36072,-14.58636 19.85785,-20.58844 6.9715,-5.58139 15.55078,-9.19607 24.50348,-9.73071 4.25556,-0.25418 8.29383,0.32657 12.06616,1.61432 5.37372,1.83438 10.20795,5.10339 14.36249,9.43762 3.19965,3.33801 5.40473,8.3822 8.86066,11.26367 0.63184,-5.26559 -4.75134,-11.4043 -7.77252,-15.27902 z m -41.55719,59.1557 c -2.70093,-1.7019 -5.61316,-3.039 -8.54004,-4.3136 -5.19501,-2.26227 -10.74933,-4.38568 -16.37531,-3.71142 -4.05975,0.48663 -7.79272,2.39453 -11.70752,3.57446 -8.11029,2.44452 -16.83984,1.72504 -25.14105,3.41107 -0.7456,0.15143 -1.51715,0.33636 -2.10474,0.81976 -0.57318,0.4715 -0.90173,1.16956 -1.21228,1.84369 -1.26544,2.74726 -3.393,4.06073 -4.65844,6.80799 -0.85688,1.86029 -2.74011,6.28033 -2.74011,6.28033 0.0832,0.0495 0.16644,0.099 0.24963,0.1485 8.49353,4.95477 19.29785,1.56561 27.87579,-1.33417 8.83545,-2.98675 17.76966,-6.49817 27.13745,-7.27411 0.67658,-0.056 1.35547,-0.0978 2.03669,-0.12408 9.62579,-0.37122 19.01934,2.90277 25.88781,9.7406 0.88044,0.87646 1.66132,1.82428 2.48029,2.755 0.32178,0.3656 2.21655,1.65815 2.24097,1.74048 -2.47413,-8.3443 -8.06574,-15.72455 -15.42914,-20.3645 z m 0.67053,64.98059 c -1.41547,-3.09705 -2.89526,-6.20007 -4.98096,-8.89178 -4.83819,-6.24414 -12.48193,-9.68903 -20.13348,-11.65168 -7.65155,-1.96264 -15.58569,-2.68267 -23.20685,-4.76013 -7.62122,-2.07745 -15.18915,-5.77411 -19.74097,-12.23004 -2.28619,-3.24249 -3.69287,-7.00818 -5.07513,-10.72705 -4.6731,8.97443 -10.48511,17.35498 -17.25244,24.87707 -2.2143,2.46125 -6.52405,5.15711 -9.08911,7.43409 7.76861,8.72192 21.67254,11.51977 32.89062,12.68402 9.54559,0.99072 19.05451,-1.57373 28.59992,-0.5166 8.87622,0.98297 17.49865,4.49353 24.20715,10.44592 3.1889,2.82947 5.63373,6.09552 7.39062,9.67364 2.50263,5.09681 3.60944,10.82673 3.48243,16.82923 -0.0979,4.62274 -2.10541,9.74878 -1.69922,14.22998 4.1701,-3.27649 4.70434,-11.42371 5.30792,-16.29981 0.61053,-4.93261 1.22107,-9.86517 1.8316,-14.79773 0.32282,-2.60803 0.64576,-5.24951 0.30744,-7.85553 -0.38379,-2.95642 -1.60034,-5.73223 -2.83954,-8.4436 z m -73.50287,34.45197 c -2.07373,-5.27314 -4.49976,-10.70215 -8.95471,-14.2035 -3.21472,-2.52661 -7.20343,-3.81713 -10.80603,-5.75097 -7.46332,-4.00629 -13.12726,-10.68781 -20.18933,-15.36542 -0.63428,-0.42017 -1.31061,-0.83496 -2.06793,-0.90863 -0.73865,-0.0719 -1.4646,0.18939 -2.16089,0.44653 -2.83741,1.04773 -5.27057,0.47211 -8.10797,1.5199 -1.92139,0.70953 -6.37848,2.5033 -6.37848,2.5033 0.0239,0.0938 0.0477,0.18768 0.0715,0.28155 2.50232,9.50934 12.53864,14.75263 20.6546,18.76776 8.35956,4.13562 17.15991,7.9701 24.33264,14.04554 0.51801,0.43878 1.02759,0.88928 1.5279,1.35241 7.06897,6.54395 11.39611,15.50122 11.41778,25.19306 0.003,1.24237 -0.11529,2.46478 -0.19421,3.7019 -0.0311,0.48609 0.39477,2.73987 0.35388,2.81531 4.15082,-7.64978 5.41559,-16.82227 3.48981,-25.30994 -0.70636,-3.11322 -1.82019,-6.11792 -2.98859,-9.0888 z m -58.76147,3.4505 c -3.91999,-6.85791 -6.65741,-14.82325 -5.31104,-22.60688 0.67627,-3.90942 2.34436,-7.56683 3.99652,-11.17389 -9.65021,3.04151 -19.68591,4.85779 -29.79004,5.39142 -3.30615,0.17462 -8.25982,-0.96649 -11.68365,-1.17028 -0.67407,11.66058 7.17908,23.47058 14.28827,32.22625 6.04919,7.45026 14.58636,12.36072 20.58844,19.85779 5.58136,6.97156 9.19598,15.55084 9.73071,24.50354 0.25409,4.25555 -0.3266,8.29382 -1.61438,12.06616 -1.83435,5.37372 -5.10333,10.20795 -9.43762,14.36249 -3.33795,3.19965 -8.3822,5.40472 -11.26367,8.86066 5.26556,0.63189 11.40435,-4.75135 15.27905,-7.77246 3.91949,-3.05609 7.83911,-6.11225 11.75867,-9.1684 2.07244,-1.61591 4.16857,-3.25537 5.77209,-5.33734 1.81909,-2.36182 2.92169,-5.18482 3.96271,-7.97839 1.18902,-3.1908 2.33679,-6.43134 2.76532,-9.80951 0.99414,-7.83643 -1.97486,-15.67725 -5.99756,-22.47553 -4.02264,-6.79822 -9.12378,-12.91766 -13.04382,-19.77563 z m -59.92258,-3.63538 c -2.44452,-8.11029 -1.72498,-16.83984 -3.41104,-25.14105 -0.15143,-0.74561 -0.3364,-1.51715 -0.81973,-2.10474 -0.47153,-0.57312 -1.16956,-0.90173 -1.84372,-1.21228 -2.74723,-1.26544 -4.06073,-3.393 -6.80796,-4.65845 -1.86032,-0.85687 -6.28036,-2.74011 -6.28036,-2.74011 -0.0495,0.0832 -0.099,0.16645 -0.1485,0.24964 -4.95474,8.49353 -1.56558,19.29785 1.33417,27.87585 2.98678,8.83539 6.4982,17.76959 7.27411,27.13745 0.0561,0.67658 0.0978,1.35541 0.12411,2.03668 0.37119,9.6258 -2.90277,19.01935 -9.74063,25.88782 -0.8765,0.88043 -1.82431,1.66132 -2.75501,2.48029 -0.3656,0.32177 -1.65814,2.21655 -1.74044,2.24096 8.3443,-2.47412 15.72455,-8.06573 20.3645,-15.42913 1.70187,-2.70093 3.03897,-5.61316 4.31354,-8.54004 2.26226,-5.19507 4.38571,-10.74933 3.71142,-16.37531 -0.48654,-4.05975 -2.3945,-7.79272 -3.57446,-11.70758 z m -46.04749,-53.09643 c -2.46121,-2.2143 -5.15713,-6.52405 -7.43408,-9.08912 -8.72189,7.76862 -11.51974,21.67255 -12.68405,32.89069 -0.99063,9.54559 1.57373,19.05444 0.51669,28.59985 -0.98303,8.87622 -4.49356,17.49866 -10.44598,24.20722 -2.82944,3.1889 -6.09549,5.63366 -9.67361,7.39062 -5.09684,2.50263 -10.8267,3.60944 -16.82917,3.48242 -4.62283,-0.0979 -9.74881,-2.10546 -14.23004,-1.69921 3.27655,4.1701 11.42371,4.70434 16.29987,5.30786 4.93255,0.61059 9.86511,1.22113 14.79763,1.83166 2.6081,0.32282 5.24952,0.64575 7.85556,0.30744 2.9564,-0.38379 5.73221,-1.60035 8.44358,-2.83954 3.09707,-1.41547 6.20007,-2.89527 8.89181,-4.98096 6.24411,-4.8382 9.68906,-12.48199 11.65168,-20.13354 1.96264,-7.65155 2.68264,-15.58564 4.7601,-23.20679 2.07742,-7.62122 5.77414,-15.18915 12.23004,-19.74103 3.24252,-2.28619 7.00824,-3.69281 10.72705,-5.07513 -8.97443,-4.67304 -17.35501,-10.48511 -24.87708,-17.25244 z m -57.83548,16.88696 c 5.27311,-2.07373 10.70206,-4.49976 14.20343,-8.95465 2.52665,-3.21479 3.81717,-7.20349 5.75101,-10.80609 4.00629,-7.46332 10.68778,-13.12726 15.36539,-20.18934 0.42016,-0.63433 0.83493,-1.31066 0.90863,-2.06793 0.0719,-0.73871 -0.18942,-1.46466 -0.44647,-2.16089 -1.04782,-2.8374 -0.47217,-5.27056 -1.51996,-8.10797 -0.70951,-1.92138 -2.50327,-6.37848 -2.50327,-6.37848 -0.0939,0.0238 -0.18774,0.0477 -0.28155,0.0715 -9.50937,2.50226 -14.75269,12.53857 -18.76782,20.6546 -4.13562,8.35956 -7.9701,17.15991 -14.04548,24.33264 -0.43881,0.51801 -0.88931,1.02759 -1.35241,1.52789 -6.54401,7.06897 -15.50125,11.39612 -25.19309,11.41779 -1.24231,0.003 -2.46469,-0.1153 -3.7019,-0.19421 -0.48606,-0.0311 -2.73981,0.39483 -2.81528,0.35388 7.64975,4.15088 16.82224,5.41559 25.30991,3.4898 3.11322,-0.70636 6.11798,-1.82019 9.08886,-2.98858 z m -3.45059,-58.76148 c 6.85797,-3.92004 14.82331,-6.65747 22.60691,-5.31103 3.90939,0.67627 7.5668,2.34436 11.17385,3.99652 -3.0415,-9.65027 -4.85775,-19.68597 -5.39141,-29.7901 -0.17463,-3.30612 0.96652,-8.2598 1.17028,-11.68366 -11.66055,-0.67404 -23.47049,7.17911 -32.22619,14.28827 -7.45026,6.0492 -12.36075,14.58637 -19.85782,20.58844 -6.97153,5.58136 -15.55084,9.19605 -24.50348,9.73072 -4.25555,0.25415 -8.29379,-0.32654 -12.06619,-1.61432 -5.37366,-1.83435 -10.20792,-5.1034 -14.36249,-9.43769 -3.19962,-3.33795 -5.40466,-8.38217 -8.8606,-11.26364 -0.63192,5.2656 4.75129,11.40433 7.77243,15.27903 3.05616,3.91955 6.11228,7.83917 9.16837,11.75866 1.61594,2.07251 3.25537,4.16858 5.33737,5.77216 2.36185,1.81909 5.18485,2.92163 7.97836,3.96271 3.19083,1.18902 6.43137,2.33673 9.80948,2.76532 7.83643,0.99414 15.67728,-1.97492 22.47553,-5.99756 6.79825,-4.02265 12.91769,-9.12384 19.7756,-13.04383 z m -32.98746,-64.37317 c 2.70087,1.70191 5.61316,3.03901 8.54004,4.31357 5.19501,2.26227 10.7493,4.38571 16.37528,3.71143 4.05972,-0.48654 7.79272,-2.39447 11.70755,-3.57446 8.11032,-2.44452 16.83984,-1.72498 25.14102,-3.41105 0.74561,-0.15142 1.51715,-0.33639 2.10474,-0.81973 0.57315,-0.47153 0.90173,-1.16958 1.21228,-1.84372 1.26544,-2.74725 3.39297,-4.06073 4.65844,-6.80798 0.85691,-1.86032 2.74018,-6.28037 2.74018,-6.28037 -0.0832,-0.0495 -0.16645,-0.0989 -0.2497,-0.14846 -8.49347,-4.95478 -19.29782,-1.56562 -27.87582,1.33416 -8.83539,2.98679 -17.76962,6.4982 -27.13739,7.27408 -0.67661,0.0561 -1.35547,0.0978 -2.03668,0.12412 -9.62586,0.37118 -19.01941,-2.90274 -25.88785,-9.7406 -0.88043,-0.8765 -1.66129,-1.82431 -2.48026,-2.75501 -0.32174,-0.36563 -2.21655,-1.65817 -2.24093,-1.74048 2.47406,8.34433 8.0657,15.72458 15.4291,20.3645 z m -0.67056,-64.98059 c 1.41547,3.09708 2.8953,6.20008 4.98096,8.89182 4.83826,6.24411 12.48199,9.68906 20.13351,11.65167 7.65155,1.96265 15.58567,2.68265 23.20685,4.76013 7.62116,2.0774 15.18915,5.77411 19.74097,12.23001 2.28616,3.24253 3.69281,7.00824 5.07513,10.72709 4.6731,-8.97446 10.48508,-17.35505 17.25241,-24.87711 2.2143,-2.46121 6.52402,-5.15714 9.08915,-7.43408 -7.76865,-8.7219 -21.67255,-11.51975 -32.89069,-12.68405 -9.54559,-0.99067 -19.05447,1.57373 -28.59982,0.51666 -8.87622,-0.98303 -17.49866,-4.49353 -24.20725,-10.44599 -3.18881,-2.8294 -5.63367,-6.09548 -7.39059,-9.67358 -2.50266,-5.09686 -3.60944,-10.82672 -3.48236,-16.82919 0.0978,-4.62284 2.1054,-9.74881 1.69922,-14.23007 -4.17017,3.27655 -4.70444,11.42373 -5.30796,16.29989 -0.61053,4.93256 -1.22107,9.86511 -1.8316,14.79767 -0.32285,2.60806 -0.64575,5.24948 -0.30747,7.85553 0.38379,2.95639 1.60031,5.73224 2.83954,8.4436 z m 73.5029,-34.4519 c 2.07376,5.2731 4.49973,10.70206 8.95468,14.20343 3.21475,2.52664 7.20346,3.81717 10.806,5.75101 7.46341,4.00628 13.12729,10.68777 20.18936,15.36541 0.63428,0.42014 1.31067,0.8349 2.06791,0.90863 0.73873,0.0719 1.46469,-0.18942 2.16091,-0.4465 2.83744,-1.04779 5.27057,-0.47214 8.10798,-1.51996 1.92135,-0.70947 6.37848,-2.50326 6.37848,-2.50326 -0.0239,-0.0938 -0.0477,-0.18772 -0.0716,-0.28153 -2.50223,-9.5094 -12.53854,-14.75271 -20.65457,-18.76785 -8.35956,-4.13562 -17.15991,-7.97009 -24.33261,-14.04547 -0.51804,-0.43881 -1.02762,-0.88931 -1.52786,-1.35245 -7.069,-6.54397 -11.39621,-15.50125 -11.41785,-25.19308 -0.003,-1.24231 0.11526,-2.46469 0.19427,-3.70191 0.031,-0.48602 -0.39486,-2.7398 -0.35388,-2.81527 -4.15091,7.64978 -5.41562,16.82226 -3.48987,25.3099 0.70643,3.11325 1.82026,6.11798 2.98862,9.0889 z m 58.76141,-3.45059 c 3.92002,6.85797 6.65745,14.8233 5.31104,22.6069 -0.67621,3.90942 -2.3443,7.56683 -3.99652,11.17389 9.65027,-3.0415 19.68597,-4.85779 29.7901,-5.39145 3.30609,-0.17462 8.25976,0.96652 11.68365,1.17029 0.67408,-11.66055 -7.17907,-23.47049 -14.2882,-32.2262 -6.04926,-7.45028 -14.5864,-12.36075 -20.58847,-19.85785 -5.58139,-6.97152 -9.19608,-15.55081 -9.73072,-24.50348 -0.25418,-4.25555 0.32657,-8.29379 1.61435,-12.06619 1.83435,-5.37366 5.10336,-10.20791 9.43759,-14.36252 3.33802,-3.19961 8.38218,-5.40466 11.26364,-8.86059 -5.26556,-0.63193 -11.40426,4.75128 -15.27899,7.77243 -3.91955,3.05615 -7.83914,6.1123 -11.75869,9.16839 -2.07245,1.61591 -4.16852,3.25538 -5.7721,5.33735 -1.81906,2.36184 -2.92169,5.18487 -3.96265,7.97836 -1.18908,3.19082 -2.33682,6.43139 -2.76541,9.80951 -0.99405,7.83642 1.97492,15.67727 5.99756,22.47555 4.02268,6.79825 9.12381,12.9177 13.04382,19.77561 z m 59.92261,3.6354 c 2.44452,8.11032 1.72504,16.83985 3.41101,25.14103 0.15143,0.7456 0.33643,1.51715 0.81977,2.10473 0.47155,0.57318 1.16961,0.90177 1.84369,1.21228 2.74731,1.26544 4.06073,3.39301 6.80798,4.65845 1.86035,0.8569 6.28039,2.7402 6.28039,2.7402 0.0494,-0.0833 0.099,-0.16644 0.14844,-0.24969 4.95477,-8.4935 1.56561,-19.29785 -1.3341,-27.87586 -2.98682,-8.83538 -6.49823,-17.76962 -7.27411,-27.13742 -0.056,-0.6766 -0.0978,-1.35547 -0.12409,-2.03668 -0.37121,-9.62582 2.90271,-19.01938 9.74054,-25.88785 0.87653,-0.88043 1.82434,-1.66128 2.75501,-2.48025 0.36566,-0.32175 1.65814,-2.21655 1.74047,-2.24097 -8.34429,2.47409 -15.72448,8.06574 -20.36444,15.42917 -1.7019,2.70084 -3.039,5.61313 -4.31359,8.54001 -2.26227,5.19501 -4.38569,10.74933 -3.71143,16.37527 0.48657,4.05976 2.39447,7.79276 3.57446,11.70758 z"
             id="path13" />
        </g>
        <g
           transform="matrix(0.39975394,0,0,0.39975394,3.0980447e-5,-1.3070488e-4)"
           id="g19">
          <circle
             style="opacity:1;fill:#fbc41e;fill-rule:nonzero;stroke:none;stroke-width:1;stroke-linecap:butt;stroke-linejoin:miter;stroke-miterlimit:4;stroke-dasharray:none;stroke-dashoffset:0;paint-order:stroke"
             cx="0"
             cy="0"
             r="105.12058"
             id="circle17" />
        </g>
        <g
           transform="matrix(0.39975394,0,0,0.39975394,-9.6322758e-4,-9.2394692)"
           id="g23">
          <path
             inkscape:connector-curvature="0"
             style="opacity:1;fill:#f6e58b;fill-rule:nonzero;stroke:none;stroke-width:1;stroke-linecap:butt;stroke-linejoin:miter;stroke-miterlimit:4;stroke-dasharray:none;stroke-dashoffset:0;paint-order:stroke"
             transform="translate(-521.98195,-468.30443)"
             d="m 521.98645,386.29666 c -58.06,0 -105.12558,47.06555 -105.12558,105.11667 0,21.82825 6.65738,42.09485 18.0445,58.89886 h 5.17596 c -9.91464,-15.2691 -15.67069,-33.48315 -15.67069,-53.05361 0,-53.88355 43.68332,-97.5669 97.57581,-97.5669 53.88348,0 97.56677,43.68335 97.56677,97.5669 0,19.57046 -5.75598,37.78451 -15.67065,53.05361 h 5.17596 c 11.39606,-16.80401 18.0445,-37.07061 18.0445,-58.89886 0,-58.05112 -47.06555,-105.11667 -105.11658,-105.11667 z"
             id="path21" />
        </g>
        <g
           transform="matrix(0.39975394,0,0,0.39975394,-9.6326756e-4,1.9694089)"
           id="g27">
          <path
             inkscape:connector-curvature="0"
             style="opacity:1;fill:#ed7e11;fill-rule:nonzero;stroke:none;stroke-width:1;stroke-linecap:butt;stroke-linejoin:miter;stroke-miterlimit:4;stroke-dasharray:none;stroke-dashoffset:0;paint-order:stroke"
             transform="translate(-521.98195,-496.34387)"
             d="m 570.13422,515.80084 c -33.7912,-6.41208 -35.4726,-35.65094 -37.45453,-43.09793 -3.02436,-11.36392 -18.0069,-11.49835 -21.06723,-4.9e-4 -1.98203,7.44748 -3.66339,36.68634 -37.45465,43.09842 0,0 17.79586,-11.07733 20.69293,-21.68017 2.89706,-10.60288 9.31198,-26.93125 9.51892,-28.41568 0.20697,-1.48438 9.10507,-10.39078 10.13974,-11.23902 1.03467,-0.84823 7.6366,-2.96881 7.6366,-2.96881 0,0 6.60199,2.12058 7.63665,2.96881 1.03467,0.84824 9.9328,9.75464 10.13971,11.23902 0.20691,1.48443 6.62189,17.8128 9.51892,28.41568 2.8971,10.60284 20.69294,21.68017 20.69294,21.68017 z m 56.96881,-24.38751 c 0,58.06 -47.05658,105.12555 -105.11658,105.12555 -58.06,0 -105.12558,-47.06555 -105.12558,-105.12555 0,-38.27536 20.45401,-71.75848 51.01895,-90.14206 -22.6047,16.45599 -37.30267,43.12113 -37.30267,73.23093 0,49.99261 40.53317,90.52575 90.52576,90.52575 50.00158,0 90.52575,-40.53314 90.52575,-90.52575 0,-33.46527 -18.16046,-62.69159 -45.15576,-78.35334 35.82123,16.75046 60.63013,53.10712 60.63013,95.26447 z m -117.6926,14.26022 c 0,0 1.47116,5.23917 6.59256,8.28562 4.3327,2.57739 10.07788,2.66162 14.55078,-0.0274 2.67719,-1.60949 5.71601,-4.57104 7.00617,-9.52539 -9.82483,3.2685 -18.90277,3.81333 -28.14951,1.26718 z"
             id="path25" />
        </g>
        <g
           transform="matrix(0.39975394,0,0,0.39975394,0.68340877,20.938361)"
           id="g31">
          <path
             inkscape:connector-curvature="0"
             style="opacity:1;fill:#ffffff;fill-rule:nonzero;stroke:none;stroke-width:1;stroke-linecap:butt;stroke-linejoin:miter;stroke-miterlimit:4;stroke-dasharray:none;stroke-dashoffset:0;paint-order:stroke"
             transform="translate(-523.69393,-543.79544)"
             d="m 561.01624,534.87756 c -7.89393,1.84455 -15.81916,3.69422 -23.89313,4.41986 -5.55274,0.49909 -11.13916,0.46283 -16.71295,0.33991 -9.84623,-0.21716 -19.93668,-0.7583 -28.98716,-4.64203 -1.82827,-0.78461 -3.61117,-1.70465 -5.53103,-2.22644 -3.23709,-0.87988 -6.66254,-0.57892 -10.00293,-0.2713 1.43155,5.57611 5.5545,10.17975 10.42407,13.25049 4.86957,3.0708 10.46613,4.77435 16.05322,6.16247 16.13684,4.00928 33.66107,5.55933 49.02216,-0.80536 4.7478,-1.96722 9.16437,-4.64123 13.55389,-7.31421 2.51239,-1.52996 8.05463,-5.08978 6.17456,-8.84314 -1.66247,-3.3189 -7.58453,-0.6582 -10.1007,-0.0702 z"
             id="path29" />
        </g>
        <g
           transform="scale(0.39975394)"
           id="g35">
          <path
             inkscape:connector-curvature="0"
             style="opacity:1;fill:#2b210e;fill-rule:nonzero;stroke:none;stroke-width:1;stroke-linecap:butt;stroke-linejoin:miter;stroke-miterlimit:4;stroke-dasharray:none;stroke-dashoffset:0;paint-order:stroke"
             transform="translate(-521.98436,-491.41732)"
             d="m 738.83612,477.91583 c -1.12543,-5.6112 -4.65948,-15.0397 -9.75885,-22.48007 -11.16412,-16.29123 -29.45911,-23.15539 -46.61005,-17.48691 -8.43896,2.78916 -15.7622,7.80216 -22.84375,12.64975 -4.18042,2.86139 -8.0816,5.52936 -11.8576,7.51978 4.36078,-3.95124 7.68433,-8.95185 9.70038,-13.34427 1.91699,-4.17642 3.23102,-8.62897 4.50152,-12.93521 2.23957,-7.5893 4.35413,-14.75763 9.482,-20.32135 3.87597,-4.2045 9.94439,-8.64133 14.76471,-9.07492 1.1239,-0.10102 2.06445,-0.89493 2.35254,-1.98627 0.28808,-1.09137 -0.1377,-2.24594 -1.06476,-2.88864 -7.3891,-5.12039 -14.44226,-6.63675 -25.16034,-5.4111 -8.22498,0.94152 -15.90924,4.11361 -22.58179,9.25628 1.95703,-10.11563 1.70618,-20.80102 -0.50061,-30.53128 l -0.10705,-0.47143 c -3.61329,-15.91703 -5.37476,-28.50138 7.23346,-33.64267 5.32543,-2.17142 12.13537,-2.90067 18.09454,-3.32752 1.1441,-0.0819 2.10858,-0.88223 2.40118,-1.99075 0.29254,-1.10892 -0.15191,-2.2811 -1.10669,-2.91635 -4.76349,-3.17191 -13.92895,-7.34009 -22.79583,-8.99564 -19.41895,-3.6272 -37.20514,4.45893 -45.3238,20.59336 -3.99499,7.93981 -5.62847,16.66229 -7.20874,25.09783 -0.93249,4.97886 -1.8042,9.62357 -3.06659,13.70072 0.28937,-5.87705 -0.89648,-11.76257 -2.57684,-16.29376 -1.59753,-4.30927 -3.81689,-8.38694 -5.96362,-12.33033 -3.78327,-6.94946 -7.3562,-13.51361 -7.66449,-21.07367 -0.23273,-5.7134 0.92108,-13.14178 4.02338,-16.85687 0.72363,-0.86612 0.8269,-2.09253 0.25897,-3.06787 -0.5672,-0.97613 -1.68585,-1.49466 -2.79553,-1.28964 -8.84522,1.60354 -14.90619,5.51883 -21.61658,13.96368 -5.15064,6.48209 -8.34174,14.159 -9.42334,22.51395 -5.76892,-8.53659 -13.50177,-15.91501 -21.94232,-21.23477 l -0.40937,-0.25818 c -13.81067,-8.70004 -23.95413,-16.35288 -18.67364,-28.90427 2.22909,-5.30035 6.52936,-10.63131 10.44128,-15.14673 0.75052,-0.86685 0.86725,-2.11496 0.29032,-3.10604 -0.57694,-0.99067 -1.72098,-1.50251 -2.84488,-1.27951 -5.61127,1.12536 -15.03937,4.65942 -22.48004,9.75845 -16.29123,11.16485 -23.15503,29.4603 -17.48697,46.60971 2.78952,8.4393 7.80218,15.76254 12.64941,22.84451 2.86142,4.18006 5.52945,8.08103 7.51993,11.85691 -3.95105,-4.36051 -8.95145,-7.68372 -13.34366,-9.69971 -4.17609,-1.91739 -8.62897,-3.23099 -12.93521,-4.50153 -7.58966,-2.23916 -14.758,-4.35418 -20.32172,-9.48236 -4.2045,-3.87524 -8.64132,-9.94333 -9.07495,-14.76437 -0.10101,-1.12427 -0.8949,-2.06446 -1.98623,-2.35254 -1.09174,-0.28958 -2.24595,0.13769 -2.88871,1.06512 -5.12033,7.38803 -6.63745,14.44226 -5.41104,25.15927 0.94165,8.22605 4.11414,15.91086 9.25736,22.58365 -10.116,-1.95724 -20.80173,-1.7066 -30.53199,0.49991 l -0.47287,0.10697 c -15.91632,3.61337 -28.50061,5.37368 -33.6419,-7.2342 -2.17111,-5.32501 -2.90027,-12.13458 -3.32718,-18.09372 -0.0819,-1.14373 -0.88217,-2.109 -1.99079,-2.40158 -1.10998,-0.29184 -2.28143,0.15265 -2.91632,1.10669 -3.17227,4.7638 -7.34008,13.92966 -8.99563,22.79621 -3.62461,19.41443 4.45856,37.20477 20.59295,45.32306 7.93982,3.99536 16.66269,5.62884 25.09824,7.2088 4.97931,0.93255 9.62442,1.80447 13.70197,3.06701 -5.87751,-0.28973 -11.7638,0.89609 -16.29505,2.57639 -4.30887,1.59756 -8.38653,3.81723 -12.32989,5.96368 -6.9495,3.78318 -13.51401,7.35651 -21.0741,7.6648 -5.71069,0.2316 -13.14175,-0.92111 -16.85724,-4.02301 -0.86609,-0.72284 -2.09289,-0.82575 -3.06824,-0.25931 -0.97537,0.56793 -1.49054,1.68582 -1.28927,2.79626 1.60394,8.84482 5.51922,14.9054 13.96411,21.61582 6.48199,5.15091 14.15738,8.34302 22.51166,9.42474 -8.53577,5.76886 -15.91336,13.50138 -21.23291,21.94138 l -0.25812,0.40967 c -8.69971,13.8096 -16.35254,23.95153 -28.90353,18.67401 -5.30222,-2.23133 -10.63248,-6.53083 -15.14707,-10.44202 -0.86761,-0.75085 -2.11499,-0.86725 -3.10605,-0.29031 -0.99072,0.57693 -1.50516,1.72027 -1.27957,2.84494 1.12582,5.6112 4.65982,15.0401 9.75848,22.48004 8.5654,12.4975 21.32624,19.44739 34.5477,19.44739 4.01294,0 8.06891,-0.64057 12.06235,-1.96045 8.43894,-2.78955 15.76178,-7.80213 22.84335,-12.65015 4.18158,-2.86267 8.08387,-5.5318 11.861,-7.52258 -4.36225,3.95154 -7.68671,8.95355 -9.70301,13.34704 -1.91738,4.17609 -3.23098,8.62897 -4.50152,12.93525 -2.2392,7.58959 -4.35413,14.75799 -9.48236,20.32135 -3.87488,4.20446 -9.94327,8.64093 -14.76474,9.07495 -1.1239,0.10174 -2.06409,0.89563 -2.35218,1.98663 -0.28845,1.09094 0.1377,2.24622 1.06519,2.88904 5.7908,4.01294 11.37509,5.8125 18.68149,5.8125 2.01431,0 4.16144,-0.1369 6.47769,-0.4018 8.22595,-0.94152 15.91043,-4.11377 22.58252,-9.25653 -1.95709,10.1156 -1.70627,20.80097 0.50067,30.53113 l 0.10666,0.47137 c 3.61368,15.91712 5.37552,28.50214 -7.23349,33.64277 -5.32504,2.17138 -12.13458,2.90026 -18.09375,3.32751 -1.14371,0.0823 -2.10901,0.88214 -2.40155,1.99109 -0.2926,1.10815 0.15228,2.2807 1.10669,2.91595 4.76309,3.17194 13.92856,7.33973 22.79617,8.99567 3.08209,0.57538 6.12192,0.85602 9.08994,0.85602 15.72775,-7.3e-4 29.40371,-7.87628 36.23388,-21.44898 3.99421,-7.93982 5.62769,-16.66235 7.20798,-25.09753 0.93268,-4.98004 1.80466,-9.62592 3.06738,-13.7038 -0.28982,5.87806 0.89621,11.76477 2.57679,16.29651 1.59677,4.30854 3.81613,8.38587 5.96289,12.32843 3.78326,6.95063 7.35696,13.51514 7.66449,21.07556 0.23346,5.71228 -0.92038,13.14026 -4.02268,16.85688 -0.72357,0.86651 -0.82684,2.09289 -0.25888,3.06787 0.48563,0.83508 1.37454,1.3327 2.31662,1.3327 0.15863,0 0.31952,-0.0142 0.47888,-0.0434 8.84445,-1.60357 14.90464,-5.51849 21.61658,-13.96411 5.15002,-6.48144 8.34094,-14.15814 9.42288,-22.51281 5.76895,8.53649 13.50205,15.91455 21.94278,21.234 l 0.41083,0.25892 c 13.80841,8.70007 23.9519,16.35253 18.67218,28.90319 -2.22986,5.30072 -6.52936,10.63129 -10.44128,15.1471 -0.75055,0.86725 -0.86725,2.11535 -0.29035,3.10608 0.48712,0.83581 1.37604,1.33191 2.31659,1.33191 0.17511,0 0.35175,-0.0172 0.52832,-0.0524 5.61121,-1.12537 15.0401,-4.65943 22.48004,-9.75885 16.2912,-11.16486 23.15503,-29.4599 17.48688,-46.61005 -2.78949,-8.43896 -7.80212,-15.76141 -12.65009,-22.84302 -2.86218,-4.18127 -5.53076,-8.08319 -7.52136,-11.85998 3.95142,4.36151 8.95282,7.68573 13.34583,9.70202 4.17602,1.91706 8.62896,3.23096 12.93524,4.50153 7.58966,2.23956 14.75799,4.35413 20.32129,9.482 4.20453,3.87597 8.64099,9.94439 9.07495,14.7647 0.10174,1.1247 0.89569,2.06446 1.98663,2.35254 0.22748,0.0599 0.45722,0.089 0.68469,0.089 0.86499,0 1.69556,-0.41973 2.20435,-1.15454 5.11963,-7.38836 6.63635,-14.44226 5.41071,-25.15887 -0.94153,-8.22595 -4.11371,-15.91034 -9.25641,-22.58264 10.11572,1.95715 20.80108,1.7063 30.53106,-0.50055 l 0.47132,-0.10694 c 15.91565,-3.61413 28.5014,-5.37707 33.6427,7.2334 2.17145,5.32544 2.90027,12.13538 3.32757,18.09448 0.0823,1.14411 0.88214,2.10865 1.99109,2.40119 0.22675,0.0607 0.45642,0.0891 0.6839,0.0891 0.8822,0 1.72699,-0.43622 2.23212,-1.19574 3.17187,-4.7627 7.33966,-13.92816 8.99554,-22.79578 3.62458,-19.41449 -4.45813,-37.2052 -20.59289,-45.32385 -7.93982,-3.99493 -16.66236,-5.62848 -25.09827,-7.2088 -4.97333,-0.9314 -9.6134,-1.80219 -13.68738,-3.06226 0.5896,0.0288 1.1792,0.046 1.76758,0.046 5.27222,0 10.44049,-1.11639 14.51331,-2.62713 4.30847,-1.5968 8.38574,-3.8169 12.32916,-5.96295 6.94983,-3.78315 13.51434,-7.35688 21.07483,-7.66517 5.70624,-0.23272 13.14166,0.92035 16.85687,4.02338 0.86566,0.72284 2.0921,0.8291 3.06781,0.25891 0.97577,-0.56787 1.49133,-1.68512 1.28931,-2.79547 -1.60358,-8.84527 -5.51923,-14.90619 -13.96411,-21.61658 -6.47992,-5.14935 -14.15009,-8.34283 -22.50415,-9.42446 8.53375,-5.76853 15.90747,-13.50324 21.2254,-21.94166 l 0.25885,-0.41079 c 8.70007,-13.80847 16.35254,-23.95377 28.9032,-18.67215 5.30139,2.23019 10.63208,6.52969 15.14703,10.44162 0.86652,0.74975 2.11383,0.86685 3.10602,0.29037 0.99072,-0.57733 1.50482,-1.72067 1.2796,-2.84494 z M 637.22504,410.8006 c 0.22949,-0.12827 0.44897,-0.2804 0.63971,-0.48062 6.95806,-7.31427 15.63269,-11.75223 25.08776,-12.83423 6.74787,-0.77298 11.65638,-0.36179 16.21186,1.54327 -4.46265,2.11795 -8.66791,5.60898 -11.65796,8.85349 -5.97485,6.48254 -8.36859,14.59411 -10.68292,22.4385 -1.27283,4.31455 -2.47528,8.3892 -4.23145,12.21582 -3.55347,7.74149 -9.84265,14.14853 -16.02179,16.32334 -3.70611,1.30386 -7.30084,1.10745 -10.68518,-0.58438 -0.0426,-0.0213 -0.0875,-0.0308 -0.13068,-0.0496 -0.34411,-0.22959 -0.68951,-0.47187 -1.03637,-0.72629 -0.69483,-2.09924 -1.45075,-4.17056 -2.26868,-6.21106 3.77362,-2.56805 6.72907,-6.38297 9.24786,-10.29813 2.96515,-4.60894 4.80475,-11.24411 7.27985,-16.13366 2.57306,-5.08329 9.20264,-14.54801 9.20264,-14.54801 -9.58979,4.53208 -13.83832,13.15799 -22.46814,19.67749 -0.13629,0.10297 -0.26972,0.18222 -0.40491,0.27558 5.39917,-5.41654 9.32965,-12.12976 11.9184,-19.46155 z M 521.98425,593.47241 c -56.27392,0 -102.05563,-45.7818 -102.05563,-102.05527 0,-56.27389 45.78171,-102.05606 102.05563,-102.05606 56.27387,0 102.05561,45.78217 102.05561,102.05606 0,56.27347 -45.78174,102.05527 -102.05561,102.05527 z m 73.73456,-227.25659 c 1.51154,-8.06888 3.07385,-16.41241 6.72833,-23.67429 7.01728,-13.94693 22.54224,-20.90499 39.54724,-17.73202 4.46192,0.83319 9.19318,2.43112 13.25776,4.20373 -3.77649,0.56687 -7.5373,1.42023 -10.891,2.78769 -17.8236,7.26749 -13.37963,26.8432 -10.43896,39.79679 l 0.10693,0.47027 c 4.89899,21.59931 -0.94445,49.63584 -21.06994,60.86313 -3.27674,-5.07925 -6.9657,-9.86838 -11.0213,-14.31836 2.78283,-3.03439 4.87231,-6.56125 5.65533,-10.66302 1.02301,-5.35898 0.81946,-10.8685 0.54022,-16.31711 -0.2738,-5.34317 -0.81952,-11.92581 -1.15979,-17.26517 -0.44769,-7.02655 -1.63061,-13.4732 1.84186,-17.99667 -2.38916,0.95013 -4.76355,7.29617 -5.41009,9.78461 -2.72657,10.49359 -2.91266,13.23895 -5.1344,20.96771 -1.97852,6.88247 -5.87378,13.43429 -11.99652,17.33868 -2.8451,-2.10904 -5.79731,-4.08059 -8.84595,-5.90765 13.16168,-5.01837 15.76764,-18.87021 18.29028,-32.33832 z M 555.24457,325.3176 c 4.22619,-5.31827 7.98614,-8.49802 12.55432,-10.37168 -1.65741,4.65311 -2.16248,10.09519 -1.98291,14.50397 0.35919,8.80859 4.40283,16.23621 8.3125,23.41953 2.15118,3.95083 4.18274,7.6828 5.64636,11.63064 2.96082,7.98657 3.04468,16.96423 0.21326,22.87103 -1.69855,3.54306 -4.37958,5.94608 -7.96906,7.14252 -0.0451,0.0151 -0.0834,0.04 -0.12719,0.0572 -0.41608,0.083 -0.8418,0.1583 -1.27845,0.22486 -1.95532,-0.9881 -3.94433,-1.91843 -5.96515,-2.78901 0.85352,-4.48538 0.24573,-9.27429 -0.74194,-13.8251 -1.16229,-5.35571 -4.55322,-11.3483 -6.26056,-16.55591 -1.77496,-5.41385 -3.77972,-16.79422 -3.77972,-16.79422 -3.57636,9.9856 -0.48108,19.0892 -1.97321,29.80145 -0.0237,0.16947 -0.0621,0.31995 -0.0916,0.48172 -0.0123,-7.64749 -1.9798,-15.17346 -5.33325,-22.18817 0.0718,-0.2532 0.11932,-0.51645 0.11242,-0.79336 -0.25219,-10.0922 2.74384,-19.36505 8.66419,-26.81552 z m -69.65286,25.43048 c -4.63697,-6.77405 -9.43186,-13.77887 -11.98267,-21.49762 -4.89963,-14.82422 1.15533,-30.72217 15.42615,-40.50232 3.74432,-2.56622 8.21893,-4.78147 12.34637,-6.40219 -2.26947,3.07089 -4.32495,6.33404 -5.72946,9.67169 -7.46393,17.7421 9.52017,28.44186 20.75909,35.52231 l 0.40851,0.25741 c 18.7265,11.80277 34.41217,35.74024 28.14777,57.89945 -5.81787,-1.26374 -11.80725,-2.0607 -17.92945,-2.34366 -0.18365,-4.09634 -1.20166,-8.05029 -3.5393,-11.491 -3.06592,-4.51275 -7.10565,-8.26459 -11.15595,-11.91995 -3.97174,-3.58459 -9.0123,-7.85333 -13.02838,-11.38818 -5.28512,-4.65192 -10.67996,-8.37397 -11.42319,-14.02799 -1.01745,2.36121 1.79093,8.5275 3.0933,10.74429 5.49203,9.348 7.30172,11.42084 11.19577,18.45694 3.45916,6.2504 5.3378,13.61683 3.78991,20.69129 -3.53329,0.52652 -7.01071,1.22537 -10.42477,2.08612 5.72122,-12.83826 -2.22226,-24.46222 -9.9537,-35.75659 z m -57.53843,-0.29929 c -0.77258,-6.74933 -0.36178,-11.65646 1.54328,-16.21149 2.11795,4.46265 5.60898,8.66749 8.85348,11.65793 6.48255,5.97492 14.59449,8.3682 22.43927,10.68259 4.31372,1.27277 8.38877,2.47525 12.21543,4.23141 7.74148,3.5539 14.1481,9.84269 16.32333,16.02146 1.3042,3.70611 1.10739,7.30118 -0.58514,10.68558 -0.0216,0.0431 -0.0312,0.0886 -0.0502,0.13223 -0.22912,0.34338 -0.47097,0.68814 -0.72485,1.03424 -2.09949,0.69492 -4.17111,1.45087 -6.21182,2.26892 -2.56806,-3.77332 -6.38281,-6.72876 -10.29785,-9.2475 -4.60889,-2.96509 -11.24405,-4.80481 -16.13361,-7.27984 -5.08328,-2.57306 -14.548,-9.20261 -14.548,-9.20261 4.53207,9.58966 13.15799,13.83829 19.67749,22.46808 0.10305,0.13644 0.18225,0.26996 0.27572,0.40512 -5.4162,-5.39856 -12.12887,-9.32864 -19.46002,-11.9173 -0.12854,-0.23019 -0.28122,-0.45019 -0.48224,-0.64142 -7.31427,-6.95733 -11.75223,-15.63272 -12.83423,-25.0874 z m -31.26992,67.23371 c -8.06888,-1.51111 -16.41275,-3.07386 -23.67466,-6.72803 -13.94653,-7.01758 -20.90646,-22.54068 -17.73156,-39.54718 0.83319,-4.46195 2.43106,-9.19321 4.20373,-13.25736 0.5668,3.77606 1.4202,7.5365 2.78763,10.88983 7.26715,17.82325 26.84247,13.37967 39.79559,10.44016 l 0.47144,-0.10736 c 21.59936,-4.89719 49.63583,0.94494 60.86279,21.0694 -5.07919,3.27667 -9.86832,6.96563 -14.3183,11.02136 -3.03427,-2.78275 -6.56115,-4.87219 -10.66281,-5.65518 -5.35898,-1.02301 -10.86847,-0.8194 -16.31711,-0.5402 -5.34314,0.27381 -11.92578,0.81958 -17.26513,1.15979 -7.02658,0.44779 -13.47321,1.63062 -17.99668,-1.84179 0.95014,2.38904 7.29618,4.76339 9.78461,5.41006 10.49356,2.72656 13.23892,2.91263 20.96768,5.13437 6.88245,1.97846 13.43421,5.87375 17.33859,11.99643 -2.109,2.84503 -4.08047,5.79721 -5.90756,8.84586 -5.01843,-13.16199 -18.87018,-15.76786 -32.33825,-18.29016 z m -40.89817,40.47433 c -5.31833,-4.2258 -8.49768,-7.98624 -10.3717,-12.55438 4.65271,1.65741 10.09225,2.16098 14.504,1.98291 8.80853,-0.35883 16.23654,-4.40244 23.42022,-8.31281 3.95047,-2.15091 7.68204,-4.18207 11.62989,-5.64569 7.98617,-2.96197 16.96386,-3.04428 22.87066,-0.21362 3.54303,1.69858 5.94644,4.37994 7.14289,7.96979 0.0152,0.0453 0.0403,0.0839 0.0575,0.12793 0.0829,0.41555 0.15808,0.84085 0.22458,1.27685 -0.9881,1.95535 -1.91849,3.94443 -2.78909,5.9653 -4.48535,-0.85351 -9.27429,-0.24569 -13.82508,0.74198 -5.35562,1.16235 -11.34826,4.55325 -16.55581,6.26062 -5.41388,1.77496 -16.79428,3.77972 -16.79428,3.77972 9.98565,3.57633 19.08923,0.48099 29.80145,1.97321 0.16907,0.0236 0.31927,0.0618 0.48074,0.0913 -7.6463,0.0124 -15.17105,1.97943 -22.18475,5.33212 -0.25342,-0.0712 -0.51721,-0.11835 -0.79578,-0.11112 -10.10788,0.25553 -19.36502,-2.7435 -26.81546,-8.66415 z m 25.43006,69.6525 c -6.77399,4.63696 -13.77887,9.43188 -21.49723,11.98339 -14.82531,4.89887 -30.72216,-1.15606 -40.50232,-15.4262 -2.56579,-3.74427 -4.78137,-8.21894 -6.40176,-12.34632 3.0701,2.26874 6.33292,4.32422 9.67166,5.72943 17.7417,7.46393 28.44147,-9.52011 35.52152,-20.75869 l 0.25741,-0.40891 c 11.80304,-18.72705 35.7428,-34.41177 57.89963,-28.14752 -1.26358,5.81775 -2.06052,11.80695 -2.34348,17.92889 -4.09628,0.18363 -8.05029,1.20163 -11.49099,3.53925 -4.51279,3.06601 -8.26462,7.1058 -11.91992,11.15597 -3.5846,3.97181 -7.8534,9.01236 -11.38828,13.02842 -4.65192,5.28515 -8.37393,10.67999 -14.02789,11.42321 2.3612,1.01746 8.52743,-1.79089 10.74423,-3.09332 9.34805,-5.492 11.42084,-7.3017 18.45697,-11.1958 6.25034,-3.45911 13.61679,-5.33774 20.69122,-3.78986 0.52655,3.53321 1.22544,7.01056 2.08612,10.4245 -12.83841,-5.72198 -24.46252,2.22217 -35.75689,9.95356 z m 25.42904,44.22271 c -0.22982,0.12836 -0.44955,0.28083 -0.64056,0.48151 -6.95694,7.31427 -15.63199,11.75299 -25.0874,12.83496 -6.75006,0.77295 -11.65753,0.36066 -16.21186,-1.54291 4.46265,-2.11834 8.66785,-5.60974 11.65833,-8.85424 5.97452,-6.48218 8.36783,-14.59406 10.68259,-22.43885 1.27279,-4.31378 2.47525,-8.38885 4.23178,-12.21545 3.55313,-7.74152 9.84152,-14.14813 16.02066,-16.32337 3.70581,-1.30499 7.30081,-1.10888 10.68597,0.58515 0.0434,0.0217 0.0891,0.0314 0.13312,0.0505 0.34308,0.22901 0.68765,0.47077 1.03348,0.72449 0.69485,2.09943 1.4508,4.17096 2.2688,6.21155 -3.77338,2.56812 -6.72883,6.38281 -9.24753,10.29785 -2.96509,4.60895 -4.80475,11.24408 -7.27985,16.13373 -2.57303,5.08319 -9.2026,14.54791 -9.2026,14.54791 9.58972,-4.53204 13.83828,-13.15796 22.4681,-19.67749 0.13651,-0.10309 0.27012,-0.18243 0.40546,-0.276 -5.39905,5.41626 -9.32962,12.12921 -11.91849,19.46063 z m 41.50534,44.58643 c -1.51071,8.06927 -3.07385,16.41241 -6.72726,23.67425 -7.01718,13.94696 -22.54215,20.91028 -39.54755,17.73163 -4.46261,-0.83355 -9.19351,-2.43109 -13.25772,-4.20373 3.77649,-0.56647 7.53687,-1.42017 10.8902,-2.78729 17.82401,-7.26789 13.38007,-26.84321 10.43939,-39.79712 l -0.10699,-0.47071 c -4.89859,-21.59869 0.94482,-49.63531 21.07,-60.86218 3.27665,5.07916 6.96561,9.86816 11.02118,14.31805 -2.78277,3.03437 -4.87222,6.56116 -5.65524,10.66285 -1.02304,5.35901 -0.81943,10.86847 -0.54022,16.31707 0.2738,5.3432 0.81958,11.92591 1.15979,17.26526 0.44778,7.02655 1.63061,13.47321 -1.8418,17.99665 2.38904,-0.95014 4.76346,-7.29615 5.41007,-9.78461 2.72656,-10.49353 2.91262,-13.23889 5.13437,-20.96765 1.97851,-6.88245 5.87387,-13.43427 11.99658,-17.33875 2.84503,2.10901 5.79721,4.08039 8.84585,5.90747 -13.16247,5.01776 -15.76794,18.87012 -18.29065,32.33881 z m 40.47504,40.89709 c -4.22696,5.31861 -7.98694,8.49799 -12.55432,10.37244 1.65814,-4.6535 2.16244,-10.09558 1.98212,-14.50366 -0.3584,-8.80853 -4.40201,-16.23731 -8.31247,-23.42139 -2.15052,-3.95007 -4.18201,-7.68164 -5.6456,-11.62872 -2.96091,-7.98694 -3.04468,-16.9646 -0.21326,-22.87146 1.69778,-3.54303 4.37958,-5.94641 7.96896,-7.14288 0.0445,-0.0149 0.0822,-0.0394 0.12534,-0.0563 0.41675,-0.0832 0.84317,-0.15857 1.28055,-0.22528 1.9552,0.9881 3.94394,1.91827 5.9646,2.78882 -0.85358,4.48541 -0.24576,9.27441 0.74191,13.82538 1.16238,5.35565 4.55331,11.3482 6.26062,16.55584 1.77499,5.41376 3.77972,16.79419 3.77972,16.79419 3.57633,-9.98565 0.48105,-19.08923 1.97327,-29.80139 0.0236,-0.16943 0.062,-0.32001 0.0915,-0.48175 0.0121,7.64789 1.97965,15.17426 5.33338,22.18927 -0.0716,0.25287 -0.11896,0.51569 -0.11216,0.79218 0.2522,10.09252 -2.74389,19.36499 -8.66415,26.81475 z m 69.6521,-25.42901 c 4.63696,6.77331 9.43182,13.7785 11.9834,21.49689 4.89966,14.82385 -1.15607,30.72216 -15.42621,40.50268 -3.74432,2.56586 -8.2196,4.78149 -12.34705,6.40143 2.26947,-3.07086 4.32569,-6.33331 5.73023,-9.67127 7.46313,-17.74133 -9.5202,-28.44152 -20.75763,-35.5216 l -0.41004,-0.25818 c -18.72726,-11.80243 -34.41305,-35.73975 -28.14779,-57.8996 5.81781,1.26361 11.80707,2.06061 17.92911,2.34351 0.18365,4.09649 1.20166,8.05066 3.5393,11.49145 3.06598,4.51282 7.10578,8.26459 11.15589,11.91992 3.97192,3.58454 9.01239,7.85334 13.0285,11.38825 5.28516,4.65192 10.67999,8.3739 11.42316,14.02789 1.01745,-2.36114 -1.7909,-8.52746 -3.09333,-10.74426 -5.492,-9.34802 -7.30169,-11.42084 -11.19574,-18.45697 -3.45929,-6.25043 -5.33795,-13.61719 -3.78979,-20.69171 3.53345,-0.52661 7.01105,-1.22547 10.42529,-2.08631 -5.72253,12.83838 2.22174,24.46289 9.9527,35.75788 z m 57.53918,0.29858 c 0.77222,6.74927 0.36139,11.65643 -1.5437,16.21185 -2.11761,-4.46264 -5.60894,-8.66717 -8.85345,-11.65795 -6.48218,-5.97492 -14.59412,-8.36853 -22.43891,-10.68299 -4.31372,-1.27276 -8.38879,-2.47522 -12.21539,-4.23138 -7.74151,-3.55353 -14.14886,-9.84265 -16.32336,-16.02106 -1.30426,-3.70618 -1.10742,-7.30157 0.58514,-10.68597 0.0217,-0.0432 0.0313,-0.0887 0.0504,-0.13245 0.22924,-0.34357 0.47119,-0.68848 0.72515,-1.03473 2.09913,-0.69476 4.17041,-1.45074 6.2107,-2.26855 2.56811,3.77356 6.38305,6.72918 10.29815,9.24792 4.60895,2.96509 11.24408,4.80475 16.13367,7.27985 5.08325,2.57306 14.54797,9.2027 14.54797,9.2027 -4.53204,-9.58979 -13.15795,-13.83838 -19.67749,-22.46814 -0.10314,-0.13654 -0.18249,-0.27015 -0.27594,-0.40546 5.4162,5.39905 12.12916,9.32953 19.46058,11.91833 0.12835,0.22968 0.28088,0.44935 0.48156,0.6402 7.31421,6.95734 11.75293,15.63275 12.83496,25.08783 z m 31.26917,-67.2337 c 8.06921,1.51147 16.41309,3.07385 23.67505,6.72833 13.94684,7.01721 20.90643,22.54065 17.73157,39.54724 -0.83362,4.46265 -2.4311,9.19391 -4.20374,13.25769 -0.56647,-3.77649 -1.42023,-7.53723 -2.78729,-10.89093 -7.26789,-17.82513 -26.84467,-13.3797 -39.79712,-10.43902 l -0.47064,0.10699 c -21.59723,4.89752 -49.63599,-0.94397 -60.86231,-21.07031 5.07904,-3.27661 9.86811,-6.96552 14.31793,-11.02106 3.03437,2.7829 6.56128,4.87238 10.66309,5.65546 5.35901,1.02307 10.86847,0.81946 16.31708,0.54022 5.34308,-0.2738 11.92578,-0.81952 17.26513,-1.15979 7.02655,-0.44775 13.47321,-1.63062 17.99671,1.84186 -0.95014,-2.3891 -7.29621,-4.76349 -9.78461,-5.4101 -10.49353,-2.72656 -13.23889,-2.91266 -20.96765,-5.1344 -6.88263,-1.97851 -13.43445,-5.87384 -17.33887,-11.9967 2.10907,-2.84509 4.08057,-5.79743 5.90772,-8.84619 5.01788,13.16199 18.87005,15.768 32.33795,18.29071 z m 40.89783,-40.47437 c 5.31866,4.2262 8.49872,7.98621 10.37237,12.55439 -4.65271,-1.65821 -10.09485,-2.16102 -14.5036,-1.98291 -8.80853,0.35913 -16.2373,4.40277 -23.42059,8.31317 -3.95087,2.15051 -7.68244,4.18206 -11.62952,5.64569 -7.9862,2.96014 -16.96387,3.04468 -22.8714,0.21325 -3.54303,-1.6986 -5.94647,-4.37963 -7.14288,-7.96899 -0.0148,-0.0442 -0.0394,-0.0818 -0.0562,-0.12482 -0.0833,-0.41711 -0.15876,-0.84393 -0.22547,-1.28167 0.98792,-1.95508 1.91815,-3.94385 2.78858,-5.96436 4.48547,0.85358 9.27459,0.24585 13.8255,-0.74188 5.35565,-1.16236 11.34826,-4.55322 16.55584,-6.26056 5.41382,-1.77496 16.79426,-3.77973 16.79426,-3.77973 -9.98566,-3.57635 -19.0893,-0.48114 -29.8014,-1.97326 -0.15503,-0.0217 -0.29211,-0.0571 -0.44073,-0.0838 7.63348,-0.019 15.14679,-1.98816 22.14917,-5.33588 0.25311,0.0709 0.51605,0.11707 0.79199,0.10724 10.08209,-0.25671 19.36426,2.74383 26.81403,8.66412 z m 33.30066,-59.5921 c -17.73908,-7.46503 -28.44074,9.51941 -35.52155,20.75687 l -0.25812,0.41003 c -11.80249,18.72693 -35.73913,34.41068 -57.89966,28.14786 1.26362,-5.81781 2.06067,-11.80701 2.34357,-17.92908 4.0965,-0.18365 8.0506,-1.20163 11.49133,-3.53927 4.51282,-3.06598 8.26459,-7.10578 11.91993,-11.15598 3.58459,-3.97177 7.85333,-9.0123 11.38824,-13.02847 4.65192,-5.2851 8.37396,-10.67996 14.02789,-11.42319 -2.36114,-1.01746 -8.5274,1.79092 -10.7442,3.09332 -9.34808,5.49207 -11.42083,7.30173 -18.45703,11.19577 -6.25043,3.45929 -13.617,5.33789 -20.69165,3.7898 -0.52655,-3.53342 -1.22546,-7.01093 -2.08624,-10.42505 12.83697,5.72101 24.46234,-2.22214 35.75708,-9.95297 6.77399,-4.637 13.7785,-9.43189 21.49756,-11.98307 14.82458,-4.89926 30.72216,1.15571 40.50274,15.42621 2.5658,3.7443 4.78064,8.2193 6.40137,12.34632 -3.07086,-2.26911 -6.33325,-4.32495 -9.67126,-5.7291 z m -148.0932,54.87738 c -1.34467,-0.61139 -2.93769,-0.0187 -3.55207,1.32965 -0.61352,1.3476 -0.0187,2.93842 1.32971,3.552 1.72596,0.78589 3.3075,1.88178 4.6966,3.20209 -1.146,0.32904 -2.43347,0.68506 -3.27265,0.87445 -2.16699,0.49011 -4.30554,1.11493 -6.37371,1.71875 -1.27954,0.37415 -2.55762,0.74829 -3.84009,1.08869 -8.43964,2.24261 -15.5033,3.64483 -22.2309,4.41253 -14.88818,1.70233 -29.83099,0.91889 -44.40643,-2.32483 -3.99872,-0.8905 -8.04678,-2.05548 -11.96246,-3.18237 -2.89716,-0.83368 -5.86545,-1.6814 -8.86234,-2.44037 1.42511,-1.38629 3.0593,-2.53418 4.84863,-3.34894 1.34836,-0.61358 1.94327,-2.2044 1.32968,-3.552 -0.61358,-1.34839 -2.2059,-1.94177 -3.55203,-1.32965 -6.79571,3.09406 -11.7417,9.45874 -13.23074,17.02667 -0.28586,1.45319 0.66067,2.86286 2.11383,3.14948 0.17508,0.0344 0.34866,0.0508 0.52078,0.0508 1.25559,0 2.3765,-0.88666 2.62863,-2.16473 0.24442,-1.24231 0.62323,-2.44739 1.10755,-3.60242 8.30386,9.39948 21.25198,16.81946 35.4429,20.15179 5.8641,1.37757 12.04477,2.07496 18.37808,2.07496 0.16162,0 0.32172,0 0.48639,0 18.17822,0 35.28955,-6.05274 48.20453,-17.05664 2.28699,-1.94874 4.46869,-4.07819 6.52026,-6.33643 0.75104,1.49817 1.31531,3.10113 1.64331,4.76874 0.25214,1.27881 1.37305,2.16473 2.62867,2.16473 0.17138,0 0.3457,-0.0164 0.52075,-0.0508 1.45318,-0.28662 2.39972,-1.69629 2.11389,-3.14948 -1.48908,-7.56793 -6.43506,-13.93261 -13.23077,-17.02667 z m -3.67402,15.54736 c -11.94598,10.17792 -27.8219,15.77643 -44.72662,15.77564 -0.0823,0 -0.1654,7.9e-4 -0.24695,0 -5.99884,0.002 -11.85553,-0.63226 -17.39111,-1.93274 -11.13269,-2.61444 -21.40787,-7.89117 -28.89118,-14.65924 1.28772,0.36145 2.568,0.72961 3.83405,1.09466 3.9935,1.14863 8.12241,2.33686 12.28052,3.26252 15.15982,3.37463 30.69677,4.18878 46.18054,2.41906 6.99329,-0.7984 14.30151,-2.24621 22.99933,-4.55767 1.32519,-0.35242 2.64593,-0.73774 3.96808,-1.12391 0.8283,-0.24243 1.66784,-0.48779 2.51117,-0.7243 -0.17212,0.14972 -0.34497,0.29858 -0.51783,0.44598 z m -60.09521,-29.80807 c -1.09995,-1.28702 -0.94879,-3.22128 0.33743,-4.32123 1.28702,-1.10068 3.22208,-0.94806 4.3212,0.3375 2.02338,2.36676 5.92029,3.75698 9.93176,3.531 3.62384,-0.1998 6.61237,-1.65213 8.1994,-3.98675 0.95258,-1.39847 2.85694,-1.76285 4.25843,-0.81031 1.39923,0.95175 1.76214,2.85831 0.81036,4.2583 -2.67059,3.92618 -7.38391,6.35352 -12.93152,6.65958 -0.39282,0.0217 -0.78491,0.0322 -1.17547,0.0322 -5.51026,0 -10.69941,-2.13031 -13.75159,-5.70029 z"
             id="path33" />
        </g>
        <g
           transform="matrix(0.39975394,0,0,0.39975394,0.13974142,-5.1331841)"
           id="g39">
          <path
             inkscape:connector-curvature="0"
             style="opacity:1;fill:#2b210e;fill-rule:nonzero;stroke:none;stroke-width:1;stroke-linecap:butt;stroke-linejoin:miter;stroke-miterlimit:4;stroke-dasharray:none;stroke-dashoffset:0;paint-order:stroke"
             transform="translate(-522.33393,-478.57646)"
             d="m 657.33295,439.37292 c -37.67218,-5.29864 -74.10352,-2.83383 -117.80091,7.99497 -9.54339,-4.47214 -17.73663,-3.92596 -17.73663,-3.92596 -10.65128,0.40966 -16.65967,3.92596 -16.65967,3.92596 -43.69736,-10.82874 -80.12869,-13.29358 -117.80084,-7.99493 0,0 -2.32474,11.98394 1.78494,16.68042 0.81125,0.92706 6.491,2.42248 7.13999,3.46951 1.02282,1.65018 0.19525,5.3724 0.061,8.02295 -0.79916,15.78476 4.79535,38.02051 19.28238,46.6474 12.76645,7.60229 29.41879,6.79248 43.63843,5.26092 20.45398,-2.203 35.70068,-14.06997 43.82672,-32.92227 0.74322,-1.72427 1.27591,-3.53287 1.76773,-5.34204 1.87521,-6.89758 2.59308,-15.50674 8.48532,-20.3963 3.55072,-2.94653 8.84271,-3.93659 13.27948,-2.78259 11.40003,2.96505 11.24701,19.81778 14.99841,28.52096 6.85187,15.89618 19.04493,27.80249 36.16254,31.67407 7.37097,1.66718 14.99292,1.92646 22.51898,1.61432 9.33368,-0.3872 20.06818,-0.16137 28.5661,-4.53625 14.63422,-7.53446 20.24933,-32.93866 19.50006,-47.73819 -0.13421,-2.65058 -0.96179,-6.3728 0.061,-8.02298 0.64899,-1.04709 6.32874,-2.54245 7.13995,-3.46951 4.10974,-4.69651 1.78498,-16.68046 1.78498,-16.68046 z"
             id="path37" />
        </g>
        <g
           transform="matrix(0.39975394,0,0,0.39975394,0.18011667,-5.1319999)"
           id="g43">
          <path
             inkscape:connector-curvature="0"
             style="opacity:1;fill:#73d0e0;fill-rule:nonzero;stroke:none;stroke-width:1;stroke-linecap:butt;stroke-linejoin:miter;stroke-miterlimit:4;stroke-dasharray:none;stroke-dashoffset:0;paint-order:stroke"
             transform="translate(-522.43493,-478.57942)"
             d="m 502.92459,456.29153 -0.0958,-0.0235 c -5.33045,-1.30994 -10.78489,1.64279 -12.59684,6.82412 -0.2912,0.83267 -0.5863,1.67917 -0.88083,2.52509 -2.03469,5.8631 -4.0426,11.71728 -4.5245,12.82388 -3.21268,7.32663 -8.2637,13.7609 -15.55463,17.59824 -10.16455,5.32769 -22.53329,6.22009 -33.65268,3.93554 -13.69842,-2.82003 -17.95523,-12.89529 -19.27597,-18.92797 -0.006,-0.0269 -0.0117,-0.0538 -0.0175,-0.0806 -0.57413,-2.66327 0.0418,-5.4433 1.63217,-7.6554 l 19.51751,-27.14822 c -4.0783,-0.18738 -8.12979,-0.28552 -12.16351,-0.28552 -1.66879,0 -3.32864,0.0178 -4.9975,0.0536 -7.33557,0.13381 -13.77871,6.2825 -14.29632,13.60025 -0.33911,4.78329 -0.49973,8.29046 -0.50867,8.48681 -0.27664,5.45258 0.32126,11.5745 1.79373,17.36621 2.2667,8.93299 6.60379,17.09854 13.00238,20.90909 5.63108,3.35544 13.10053,4.98859 22.82773,4.98859 5.48831,0 10.96771,-0.51764 15.12631,-0.96384 16.83973,-1.81155 29.41376,-11.29785 36.36557,-27.43259 0.49082,-1.14224 0.8924,-2.46304 1.33863,-4.10504 0.33017,-1.21371 0.6336,-2.57013 0.95486,-4.01584 0.68717,-3.00738 1.65988,-6.13977 3.00742,-9.35244 1.21365,-2.89139 2.73968,-5.85419 4.63159,-8.84375 -0.53543,-0.0446 -1.07984,-0.13388 -1.63312,-0.27665 z m 37.38754,0.27668 c 1.89191,2.98953 3.41797,5.95233 4.6316,8.84372 1.34753,3.2127 2.32025,6.34506 3.00738,9.35244 0.32129,1.44571 0.62476,2.80213 0.9549,4.01584 0.44622,1.642 0.84784,2.9628 1.33862,4.10504 6.95184,16.13474 19.52588,25.62104 36.3656,27.43259 4.15857,0.44623 9.63794,0.96384 15.12628,0.96384 9.72724,0 17.19666,-1.63312 22.82776,-4.98859 6.39856,-3.81055 10.73566,-11.9761 13.00238,-20.90909 1.47247,-5.79171 2.07037,-11.9136 1.7937,-17.36621 -0.009,-0.19635 -0.16955,-3.70352 -0.50867,-8.48681 -0.51757,-7.31772 -6.96075,-13.46644 -14.29632,-13.60025 -1.66882,-0.0357 -3.32868,-0.0536 -4.9975,-0.0536 -4.03369,0 -8.0852,0.0981 -12.16351,0.28552 l 19.51752,27.14822 c 1.59033,2.2121 2.20629,4.99213 1.63214,7.6554 -0.006,0.0268 -0.0116,0.0537 -0.0175,0.0806 -1.32074,6.03268 -5.57758,16.10794 -19.276,18.92797 -11.11939,2.28455 -23.48816,1.39216 -33.65265,-3.93554 -7.29095,-3.83734 -12.34198,-10.27161 -15.55469,-17.59824 -0.48187,-1.10657 -2.48974,-6.96075 -4.52447,-12.82388 -0.2945,-0.84592 -0.5896,-1.69238 -0.8808,-2.52509 -1.81195,-5.18133 -7.26642,-8.13406 -12.59686,-6.82412 l -0.0958,0.0235 c -0.55328,0.14277 -1.09772,0.23206 -1.63312,0.27668 z"
             id="path41" />
        </g>
        <g
           transform="matrix(0.39975394,0,0,0.39975394,0.18011672,-10.308349)"
           id="g47">
          <path
             inkscape:connector-curvature="0"
             style="opacity:1;fill:#ffffff;fill-rule:nonzero;stroke:none;stroke-width:1;stroke-linecap:butt;stroke-linejoin:miter;stroke-miterlimit:4;stroke-dasharray:none;stroke-dashoffset:0;paint-order:stroke"
             transform="translate(-522.43493,-465.63058)"
             d="m 437.47549,446.16269 -19.51751,27.14822 c -1.59037,2.2121 -2.2063,4.99213 -1.63217,7.6554 l 0.0175,0.0806 c -5.86313,2.42733 -9.0401,4.18539 -9.0401,4.33709 -1.47247,-5.79171 -2.07037,-11.91363 -1.79373,-17.36621 0.009,-0.19635 0.16956,-3.70352 0.50867,-8.48681 0.51761,-7.31775 6.96075,-13.46644 14.29632,-13.60025 1.66886,-0.0357 3.32871,-0.0536 4.9975,-0.0536 4.03372,0 8.08521,0.0981 12.16351,0.28552 z m 65.4491,10.12884 c -0.032,-0.008 -0.0639,-0.0157 -0.0958,-0.0235 -5.33554,-1.3108 -10.79209,1.66302 -12.60563,6.84924 -0.28836,0.82458 -0.58047,1.66257 -0.87204,2.49997 3.43577,-0.15177 6.9697,-0.22312 10.57502,-0.20529 1.21365,-2.89139 2.73968,-5.85419 4.63159,-8.84375 -0.53543,-0.0446 -1.07984,-0.13388 -1.63312,-0.27665 z m 116.63327,-10.41436 c 1.66882,0 3.32868,0.0178 4.9975,0.0536 7.33557,0.13382 13.77875,6.28254 14.29632,13.60026 0.33912,4.78329 0.49976,8.29046 0.50867,8.48681 0.27667,5.45261 -0.32123,11.57449 -1.7937,17.36621 0,-0.1517 -3.177,-1.90976 -9.0401,-4.33709 0.006,-0.0269 0.0117,-0.0538 0.0175,-0.0806 0.57415,-2.66327 -0.0418,-5.4433 -1.63214,-7.6554 l -19.51752,-27.14822 c 4.07831,-0.18738 8.12982,-0.28552 12.16351,-0.28552 z m -79.24573,10.69104 c 1.89191,2.98953 3.41797,5.95233 4.6316,8.84372 3.60528,-0.0178 7.13928,0.0535 10.57501,0.20529 -0.29157,-0.8374 -0.58368,-1.67539 -0.87201,-2.49997 -1.81354,-5.18622 -7.27014,-8.16004 -12.60565,-6.84924 -0.0319,0.008 -0.0639,0.0157 -0.0958,0.0235 -0.55328,0.14277 -1.09772,0.23206 -1.63312,0.27668 z"
             id="path45" />
        </g>
      </g>
    </g>
  </g>
</svg>
